<?xml version="1.0" encoding="UTF-8" standalone="no"?>
<!DOCTYPE svg PUBLIC "-//W3C//DTD SVG 1.1//EN" "http://www.w3.org/Graphics/SVG/1.1/DTD/svg11.dtd">
<svg width="100%" height="100%" viewBox="0 0 356 87" version="1.1" xmlns="http://www.w3.org/2000/svg" xmlns:xlink="http://www.w3.org/1999/xlink" xml:space="preserve" xmlns:serif="http://www.serif.com/" style="fill-rule:evenodd;clip-rule:evenodd;stroke-linejoin:round;stroke-miterlimit:2;">
    <g transform="matrix(1,0,0,1,0.0199965,-1.19)">
        <g id="writing" transform="matrix(1,0,0,1,0.02,5.90927)">
            <g transform="matrix(1,0,0,1,-25.87,-24.74)">
                <rect x="156" y="26" width="9.67" height="74.23" style="fill:rgb(95,95,95);fill-rule:nonzero;"/>
            </g>
            <g transform="matrix(1,0,0,1,-25.87,-24.74)">
                <path d="M245,67.58C244.45,57.23 243.79,44.67 243.79,35.58L243.57,35.58C240.93,44.17 237.95,53.53 234.21,63.77L221.1,99.77L213.8,99.77L201.69,64.39C198.16,53.81 195.3,44.39 193.21,35.53L193,35.53C192.78,44.78 192.23,57.12 191.57,68.35L189.57,100.18L180.43,100.18L185.61,26L197.83,26L210.5,61.9C213.58,71.04 216.01,79.19 217.99,86.9L218.21,86.9C220.21,79.41 222.83,71.26 226.14,61.9L239.36,26L251.58,26L256.21,100.23L246.74,100.23L245,67.58Z" style="fill:rgb(95,95,95);fill-rule:nonzero;"/>
            </g>
            <g transform="matrix(1,0,0,1,-25.87,-24.74)">
                <path d="M271,26.83C277.08,25.844 283.231,25.366 289.39,25.4C298.86,25.4 305.8,27.6 310.2,31.56C314.2,35.09 316.7,40.49 316.7,47.09C316.7,53.69 314.7,59.09 310.98,62.95C305.8,68.35 297.65,71.1 288.29,71.1C285.703,71.183 283.115,70.962 280.58,70.44L280.58,100.18L271,100.18L271,26.83ZM280.58,62.62C283.181,63.205 285.845,63.463 288.51,63.39C300.07,63.39 307.12,57.67 307.12,47.64C307.12,37.61 300,33 289.58,33C286.561,32.918 283.542,33.176 280.58,33.77L280.58,62.62Z" style="fill:rgb(95,95,95);fill-rule:nonzero;"/>
            </g>
            <g transform="matrix(1,0,0,1,-25.87,-24.74)">
                <path d="M381.32,97.87C377.91,99.63 370.75,101.39 361.72,101.39C340.79,101.39 325.15,88.18 325.15,63.72C325.15,40.38 340.9,24.72 363.92,24.72C373.06,24.72 379.01,26.72 381.54,28.02L379.12,35.84C374.459,33.705 369.375,32.652 364.25,32.76C346.85,32.76 335.25,43.88 335.25,63.37C335.25,81.66 345.71,93.22 363.66,93.22C369.61,93.22 375.56,92.01 379.41,90.14L381.32,97.87Z" style="fill:rgb(95,95,95);fill-rule:nonzero;"/>
            </g>
        </g>
        <g id="frame" transform="matrix(1.15917,0,0,1.15917,-29.9846,-28.8673)">
            <path d="M114.59,47.78C113.377,47.779 112.169,47.924 110.99,48.21C103.593,50.046 95.896,46.086 93.09,39C92.007,31.535 85.544,25.936 78,25.93L77.75,25.93C70.201,25.927 63.729,31.529 62.65,39C60.352,44.816 54.704,48.659 48.45,48.66C47.203,48.664 45.96,48.513 44.75,48.21C43.565,47.921 42.35,47.775 41.13,47.775C32.748,47.775 25.85,54.673 25.85,63.055C25.85,71.437 32.748,78.335 41.13,78.335C42.35,78.335 43.565,78.189 44.75,77.9C45.961,77.603 47.203,77.452 48.45,77.45C54.716,77.449 60.373,81.307 62.66,87.14C63.778,94.576 70.23,100.135 77.75,100.14L78,100.14C85.523,100.14 91.982,94.58 93.1,87.14C95.386,81.31 101.038,77.453 107.3,77.45C108.547,77.451 109.789,77.602 111,77.9C112.165,78.179 113.359,78.32 114.556,78.32C122.933,78.32 129.826,71.427 129.826,63.05C129.826,54.69 122.96,47.804 114.6,47.78L114.59,47.78ZM86,70.48L85.77,70.48L70,70.48L69.75,70.48C64.711,70.176 60.139,67.389 57.56,63.05C60.144,58.717 64.714,55.935 69.75,55.63L85.99,55.63C91.025,55.937 95.595,58.719 98.18,63.05C95.6,67.384 91.034,70.169 86,70.48ZM114.19,75.76C107.218,75.76 121.154,75.76 114.18,75.76C114.177,75.76 114.19,75.76 114.19,75.76Z" style="fill:rgb(238,115,38);fill-rule:nonzero;"/>
        </g>
        <g id="mouse" transform="matrix(1.15917,0,0,1.15917,0.0031829,-0.189415)">
            <circle cx="15.03" cy="38.2" r="13.46" style="fill:white;"/>
            <g transform="matrix(1,0,0,1,-25.87,-24.74)">
                <path d="M40.86,57.58C41,57.19 40.79,56.94 40.38,56.58C39.955,56.27 39.355,56.345 39.02,56.75L38.65,57.27C38.058,56.957 37.399,56.792 36.73,56.79C36.703,56.451 36.639,56.115 36.54,55.79C36.43,55.62 36.05,55.79 35.76,56.74C35.688,56.939 35.536,57.099 35.34,57.18C34.615,57.607 33.923,58.088 33.27,58.62C32.38,59.31 32.13,59.16 32.18,59.77C32.23,60.38 32.45,60.77 33.31,61.2C34.17,61.63 34.2,61.75 34.81,61.74C35.35,61.71 35.886,61.842 36.35,62.12C36.46,62.3 37.18,63.29 37.16,63.66C37.196,63.997 37.162,64.337 37.06,64.66C36.94,64.84 36.86,64.98 36.86,65.66C36.864,65.695 36.867,65.729 36.867,65.764C36.867,66.188 36.542,66.547 36.12,66.59C35.859,66.61 35.602,66.67 35.36,66.77C35.21,66.87 34.79,66.99 35.05,67.13C35.31,67.27 35.34,67.44 35.47,67.4C35.658,67.364 35.849,67.341 36.04,67.33C36.231,67.319 35.92,67.82 36.12,67.82C36.856,67.837 37.592,67.79 38.32,67.68C38.65,67.489 38.961,67.268 39.25,67.02C39.69,66.588 40.193,66.224 40.74,65.94C41,65.94 41.53,66.7 41.53,66.7C41.53,66.7 41.03,67.18 41.3,67.46C41.69,67.734 42.118,67.95 42.57,68.1C43.022,68.25 40.66,68.35 40.29,68.45C39.92,68.55 40.07,69.11 40.6,69.05C42.04,68.962 43.47,68.764 44.88,68.46C46,68.08 46,67.76 46,67.6C46.375,67.641 46.755,67.597 47.11,67.47C47.44,67.26 48.19,66.82 48.25,66.89C49.197,67.515 50.268,67.927 51.39,68.1C51.53,68.108 51.67,68.108 51.81,68.1C49.852,72.182 45.708,74.79 41.18,74.79C34.712,74.79 29.39,69.468 29.39,63C29.39,56.532 34.712,51.21 41.18,51.21C47.648,51.21 52.97,56.532 52.97,63C52.97,63.004 52.97,63.007 52.97,63.01C52.972,64.457 52.704,65.891 52.18,67.24C51.709,67.19 51.241,67.11 50.78,67C49.959,66.825 49.239,66.333 48.78,65.63C48.378,65.042 48.171,64.342 48.19,63.63C48.07,62.14 45.8,56.57 40.66,58.26L40.33,58.4C40.538,58.149 40.716,57.873 40.86,57.58Z" style="fill:rgb(238,115,38);fill-rule:nonzero;"/>
            </g>
        </g>
        <g id="human" transform="matrix(1.15917,0,0,1.15917,0.0031829,-0.189415)">
            <circle cx="88.03" cy="38.2" r="13.46" style="fill:white;"/>
            <g transform="matrix(1,0,0,1,-25.87,-24.74)">
                <path d="M114.17,51.25C107.699,51.261 102.38,56.589 102.38,63.06C102.38,69.539 107.711,74.87 114.19,74.87C120.669,74.87 126,69.539 126,63.06C126,63.057 126,63.053 126,63.05C125.995,56.575 120.665,51.25 114.19,51.25C114.183,51.25 114.177,51.25 114.17,51.25ZM117.75,60.11C117.754,60.193 117.754,60.277 117.75,60.36C117.75,60.54 117.723,60.718 117.67,60.89C117.63,60.955 117.6,61.026 117.58,61.1C117.56,61.174 117.5,61.23 117.45,61.31C117.4,61.39 117.38,61.31 117.36,61.43C117.352,61.466 117.33,61.499 117.3,61.52C117.27,61.541 117.3,61.52 117.3,61.66C117.3,61.8 117.3,61.79 117.22,61.92C117.14,62.05 117.15,62.2 117.13,62.22C117.099,62.249 117.051,62.249 117.02,62.22C116.989,62.191 117.02,62.22 116.96,62.3C116.9,62.38 116.89,62.42 116.88,62.46C116.873,62.536 116.853,62.611 116.82,62.68C116.782,62.777 116.752,62.878 116.73,62.98C116.7,63.038 116.673,63.098 116.65,63.16C116.634,63.229 116.61,63.296 116.58,63.36C116.52,63.44 116.49,63.47 116.46,63.46C116.43,63.45 116.46,63.46 116.46,63.52C116.454,63.556 116.454,63.594 116.46,63.63C116.465,63.707 116.465,63.783 116.46,63.86L116.46,64.03L116.46,64.15C116.501,64.249 116.528,64.354 116.54,64.46C116.546,64.557 116.546,64.653 116.54,64.75L116.54,65.54C116.525,65.648 116.501,65.755 116.47,65.86C116.473,65.92 116.473,65.98 116.47,66.04C116.46,66.079 116.46,66.121 116.47,66.16L116.47,66.5C116.466,66.547 116.466,66.593 116.47,66.64C116.474,66.687 116.47,66.64 116.47,66.73C116.475,66.82 116.475,66.91 116.47,67C116.458,67.073 116.458,67.147 116.47,67.22C116.479,67.323 116.479,67.427 116.47,67.53L116.47,67.74L116.47,67.83C116.476,67.87 116.476,67.91 116.47,67.95L116.47,68.27C116.462,68.289 116.462,68.311 116.47,68.33C116.486,68.368 116.486,68.412 116.47,68.45C116.46,68.496 116.46,68.544 116.47,68.59C116.466,68.673 116.466,68.757 116.47,68.84C116.475,68.897 116.475,68.953 116.47,69.01C116.465,69.087 116.465,69.163 116.47,69.24L116.47,69.84C116.474,69.92 116.474,70 116.47,70.08L116.47,70.21C116.474,70.273 116.474,70.337 116.47,70.4L116.47,70.65C116.476,70.753 116.476,70.857 116.47,70.96L116.47,71.69C116.464,71.73 116.464,71.77 116.47,71.81C116.486,71.849 116.52,71.878 116.56,71.89C116.612,71.928 116.645,71.986 116.65,72.05L116.65,72.43L116.65,72.51C116.65,72.59 116.7,72.6 116.74,72.63C116.78,72.66 116.9,72.77 116.91,72.85C116.92,72.93 116.91,72.97 116.91,73.03C116.916,73.056 116.916,73.084 116.91,73.11C116.904,73.136 116.91,73.11 116.91,73.2C116.91,73.29 116.91,73.29 116.91,73.28C116.91,73.27 116.6,73.28 116.49,73.28C116.327,73.3 116.163,73.3 116,73.28C115.86,73.28 115.8,73.19 115.79,73.15C115.78,73.11 115.79,73.08 115.72,73.05L115.46,72.97C115.402,72.95 115.345,72.927 115.29,72.9C115.235,72.873 115.23,72.9 115.29,72.79C115.35,72.68 115.29,72.73 115.29,72.72C115.29,72.71 115.35,72.72 115.29,72.65C115.244,72.605 115.215,72.544 115.21,72.48C115.217,72.424 115.217,72.366 115.21,72.31C115.203,72.254 115.21,72.31 115.21,72.31C115.21,72.31 115.13,72.31 115.12,72.25C115.11,72.19 115.12,72.25 115.12,72.17C115.11,72.12 115.11,72.07 115.12,72.02C115.138,71.972 115.138,71.918 115.12,71.87C115.077,71.79 115.04,71.706 115.01,71.62C115.006,71.563 115.006,71.507 115.01,71.45C115.013,71.42 115.013,71.39 115.01,71.36C115.007,71.33 115.01,71.28 115.01,71.24C114.999,71.177 114.999,71.113 115.01,71.05L115.01,70.8C115.02,70.74 115.02,70.68 115.01,70.62L115.01,70.32C115.025,70.231 115.025,70.139 115.01,70.05C115.016,69.957 115.016,69.863 115.01,69.77C115.005,69.713 115.005,69.657 115.01,69.6C115.014,69.58 115.014,69.56 115.01,69.54C115.006,69.52 115.01,69.33 115.01,69.29L115.01,69.02C115.005,68.943 115.005,68.867 115.01,68.79C115.02,68.7 115.02,68.61 115.01,68.52C114.977,68.395 114.95,68.268 114.93,68.14L114.93,67.86C114.935,67.79 114.935,67.72 114.93,67.65C114.93,67.6 114.83,67.22 114.83,67.19C114.83,67.16 114.77,66.83 114.76,66.78C114.75,66.73 114.69,66.44 114.69,66.4C114.69,66.36 114.62,66.01 114.6,65.98C114.58,65.95 114.54,65.62 114.53,65.58C114.52,65.54 114.53,65.37 114.45,65.28C114.37,65.19 114.39,65.02 114.37,64.97C114.35,64.92 114.31,64.72 114.29,64.66C114.27,64.6 114.29,64.4 114.23,64.36C114.17,64.32 114.23,64.23 114.23,64.23C114.209,64.265 114.182,64.295 114.15,64.32C114.118,64.345 114.15,64.32 114.09,64.32C114.083,64.393 114.083,64.467 114.09,64.54C114.087,64.6 114.087,64.66 114.09,64.72C114.093,64.78 114.09,64.72 114.09,64.8C114.095,64.833 114.095,64.867 114.09,64.9L114.09,65.2C114.09,65.26 114.09,65.42 114.03,65.48C113.97,65.54 114.03,65.62 114.03,65.71L113.97,65.97L113.88,66.29C113.87,66.336 113.87,66.384 113.88,66.43C113.892,66.459 113.892,66.491 113.88,66.52C113.871,66.566 113.871,66.614 113.88,66.66C113.887,66.726 113.887,66.794 113.88,66.86C113.874,66.937 113.874,67.013 113.88,67.09L113.88,67.74C113.867,67.813 113.867,67.887 113.88,67.96C113.884,67.993 113.884,68.027 113.88,68.06C113.876,68.093 113.88,68.16 113.88,68.25L113.88,68.67C113.871,68.807 113.871,68.943 113.88,69.08C113.875,69.17 113.875,69.26 113.88,69.35C113.891,69.386 113.891,69.424 113.88,69.46L113.88,69.56C113.875,69.593 113.875,69.627 113.88,69.66L113.88,70C113.87,70.049 113.87,70.101 113.88,70.15L113.88,70.73C113.869,70.789 113.869,70.851 113.88,70.91C113.887,71.04 113.887,71.17 113.88,71.3C113.885,71.39 113.885,71.48 113.88,71.57L113.88,71.86C113.884,71.917 113.884,71.973 113.88,72.03C113.884,72.097 113.884,72.163 113.88,72.23C113.885,72.26 113.885,72.29 113.88,72.32C113.874,72.34 113.874,72.36 113.88,72.38C113.886,72.4 113.82,72.45 113.78,72.38C113.74,72.31 113.68,72.32 113.69,72.38C113.694,72.417 113.694,72.453 113.69,72.49C113.705,72.525 113.705,72.565 113.69,72.6C113.675,72.635 113.69,72.6 113.69,72.66C113.694,72.703 113.694,72.747 113.69,72.79C113.686,72.833 113.69,72.89 113.62,72.91L113.35,72.98C113.35,72.98 113.17,72.98 113.17,73.07C113.17,73.16 113.09,73.21 112.86,73.23C112.674,73.254 112.486,73.254 112.3,73.23L112.03,73.23L112.03,73.17C112.023,73.13 112.023,73.09 112.03,73.05C112.037,73.01 112.03,73.05 112.03,72.99C111.984,72.86 112.02,72.715 112.12,72.62L112.28,72.51L112.35,72.42L112.25,72.42C112.24,72.387 112.24,72.353 112.25,72.32C112.26,72.287 112.25,72.25 112.25,72.23C112.275,72.219 112.305,72.219 112.33,72.23C112.39,72.23 112.39,72.23 112.33,72.23C112.327,72.187 112.327,72.143 112.33,72.1C112.322,72.06 112.322,72.02 112.33,71.98L112.33,71.85C112.353,71.797 112.402,71.759 112.46,71.75C112.52,71.75 112.53,71.75 112.52,71.75C112.51,71.75 112.52,71.56 112.52,71.53C112.515,71.447 112.515,71.363 112.52,71.28C112.525,71.237 112.525,71.193 112.52,71.15C112.515,71.107 112.52,70.93 112.52,70.88L112.52,70.56L112.52,70L112.52,69.55C112.525,69.483 112.525,69.417 112.52,69.35C112.516,69.313 112.516,69.277 112.52,69.24C112.524,69.203 112.52,69.03 112.52,68.96C112.505,68.871 112.505,68.779 112.52,68.69C112.524,68.664 112.524,68.636 112.52,68.61C112.525,68.584 112.525,68.556 112.52,68.53C112.529,68.501 112.529,68.469 112.52,68.44C112.511,68.411 112.52,68.35 112.52,68.3L112.52,68.18C112.532,68.1 112.532,68.02 112.52,67.94C112.525,67.87 112.525,67.8 112.52,67.73C112.515,67.663 112.515,67.597 112.52,67.53L112.52,67.2C112.525,67.12 112.525,67.04 112.52,66.96C112.508,66.87 112.508,66.78 112.52,66.69L112.52,66.49C112.514,66.387 112.514,66.283 112.52,66.18C112.53,66.06 112.53,65.94 112.52,65.82L112.52,65.41L112.52,65.1L112.52,64.68L112.52,64.21L112.52,63.93C112.524,63.89 112.524,63.85 112.52,63.81C112.517,63.753 112.517,63.697 112.52,63.64C112.523,63.583 112.52,63.64 112.45,63.56C112.385,63.491 112.325,63.418 112.27,63.34C112.243,63.289 112.219,63.235 112.2,63.18C112.181,63.125 112.2,63.09 112.12,62.97C112.095,62.868 112.061,62.767 112.02,62.67C111.998,62.631 111.978,62.591 111.96,62.55C111.942,62.509 111.88,62.55 111.86,62.55C111.84,62.55 111.86,62.55 111.86,62.55C111.824,62.49 111.794,62.426 111.77,62.36C111.77,62.29 111.77,62.27 111.69,62.19C111.497,62.033 111.246,61.964 111,62L111,61.91L111,61.84L110.94,61.77C110.881,61.7 110.83,61.622 110.79,61.54C110.766,61.471 110.746,61.401 110.73,61.33C110.714,61.259 110.73,61.33 110.73,61.33C110.726,61.267 110.726,61.203 110.73,61.14C110.725,61.063 110.725,60.987 110.73,60.91L110.73,60.81C110.724,60.777 110.724,60.743 110.73,60.71C110.734,60.687 110.734,60.663 110.73,60.64C110.736,60.617 110.736,60.593 110.73,60.57C110.702,60.499 110.682,60.425 110.67,60.35L110.67,59.44C110.695,59.295 110.729,59.151 110.77,59.01C110.826,58.863 110.872,58.713 110.91,58.56C110.948,58.407 111.1,58.01 111.13,57.9C111.16,57.79 111.29,57.39 111.32,57.24C111.39,57.01 111.498,56.794 111.64,56.6C111.704,56.521 111.778,56.45 111.86,56.39C111.92,56.39 112,56.3 112,56.28C112,56.26 112,56.28 112,56.28L112.19,56.28L112.46,56.22L112.75,56.16L112.9,56.11L113.01,56.11C113.01,56.11 113.07,56.11 113.11,56.05C113.15,55.99 113.11,56.05 113.2,55.96L113.31,55.8C113.31,55.8 113.4,55.74 113.39,55.7C113.396,55.633 113.396,55.567 113.39,55.5L113.33,55.39C113.33,55.39 113.33,55.22 113.27,55.19C113.224,55.153 113.181,55.113 113.14,55.07C113.099,55.027 113.14,55.07 113.14,55.07C113.126,55.024 113.126,54.976 113.14,54.93L113.14,54.85C113.132,54.827 113.132,54.803 113.14,54.78C113.136,54.747 113.136,54.713 113.14,54.68C113.144,54.647 113.14,54.63 113.14,54.63C113.14,54.63 113.2,54.63 113.14,54.63C113.08,54.63 113.14,54.63 113.14,54.57C113.137,54.54 113.137,54.51 113.14,54.48C113.143,54.45 113.14,54.48 113.14,54.43L113.14,54.33C113.14,54.31 113.14,54.24 113.14,54.33C113.14,54.42 113.14,54.33 113.14,54.33L113.14,53.8C113.14,53.8 113.14,53.73 113.14,53.8C113.14,53.87 113.14,53.8 113.14,53.8C113.14,53.8 113.14,53.72 113.14,53.8C113.14,53.88 113.14,53.8 113.14,53.8C113.14,53.8 113.14,53.72 113.14,53.74C113.14,53.76 113.14,53.74 113.14,53.74L113.14,53.65C113.14,53.63 113.14,53.59 113.14,53.65C113.14,53.71 113.14,53.65 113.14,53.65C113.14,53.65 113.14,53.56 113.14,53.57L113.19,53.5C113.19,53.5 113.26,53.44 113.19,53.44C113.12,53.44 113.19,53.44 113.19,53.44L113.19,53.32C113.19,53.2 113.19,53.21 113.26,53.2C113.33,53.19 113.26,53.2 113.26,53.2L113.34,53.14L113.41,53.14C113.451,53.119 113.488,53.092 113.52,53.06C113.553,53.051 113.587,53.051 113.62,53.06C113.67,53.065 113.72,53.065 113.77,53.06C113.82,53.055 113.77,53.06 113.84,53.06C113.91,53.06 113.84,53.06 113.84,53.06L113.91,53L114.07,53C114.09,53 114.07,53 114.07,53L114.16,53.05L114,53.05L114.29,53.05C114.33,53.071 114.367,53.098 114.4,53.13C114.43,53.16 114.464,53.187 114.5,53.21C114.536,53.233 114.5,53.21 114.5,53.21L114.56,53.3C114.62,53.39 114.56,53.3 114.56,53.3C114.56,53.3 114.62,53.4 114.63,53.44C114.637,53.47 114.637,53.5 114.63,53.53C114.623,53.56 114.63,53.53 114.63,53.53C114.626,53.557 114.626,53.583 114.63,53.61C114.634,53.637 114.63,53.61 114.63,53.61L114.63,53.66C114.63,53.71 114.63,53.66 114.63,53.66L114.63,53.75L114.63,53.81C114.63,53.87 114.63,53.81 114.63,53.81L114.63,53.89C114.63,53.91 114.63,53.89 114.63,53.89C114.619,53.915 114.619,53.945 114.63,53.97C114.641,53.995 114.63,53.97 114.63,53.97C114.632,54.003 114.632,54.037 114.63,54.07C114.628,54.103 114.63,54.07 114.63,54.07C114.639,54.057 114.654,54.05 114.67,54.05C114.686,54.05 114.701,54.057 114.71,54.07C114.738,54.094 114.759,54.125 114.77,54.16L114.77,54.26C114.775,54.293 114.775,54.327 114.77,54.36C114.765,54.393 114.765,54.427 114.77,54.46C114.778,54.49 114.778,54.52 114.77,54.55L114.77,54.65C114.739,54.689 114.706,54.726 114.67,54.76C114.634,54.794 114.67,54.76 114.61,54.76C114.55,54.76 114.61,54.76 114.61,54.76L114.61,54.93C114.598,54.999 114.598,55.071 114.61,55.14C114.594,55.233 114.594,55.327 114.61,55.42L114.72,55.42C114.72,55.42 114.81,55.49 114.82,55.52C114.813,55.546 114.813,55.574 114.82,55.6L114.93,55.69L115,55.75L115.25,55.75C115.283,55.76 115.317,55.76 115.35,55.75L115.96,55.75C115.997,55.746 116.033,55.746 116.07,55.75C116.107,55.753 116.143,55.753 116.18,55.75C116.217,55.747 116.28,55.75 116.29,55.81C116.325,55.842 116.361,55.872 116.4,55.9C116.439,55.928 116.47,55.96 116.48,55.98L116.56,56.11L116.74,56.51L116.8,56.65C116.8,56.65 117.05,57.32 117.07,57.41C117.09,57.5 117.22,57.86 117.26,58.02C117.3,58.18 117.37,58.4 117.41,58.55C117.45,58.7 117.53,58.88 117.55,58.97C117.57,59.06 117.64,59.25 117.64,59.35C117.61,59.609 117.648,59.871 117.75,60.11Z" style="fill:rgb(238,115,38);fill-rule:nonzero;"/>
            </g>
            <g transform="matrix(1,0,0,1,-25.87,-24.74)">
                <path d="M112.3,61.09L112.21,61.25L112.21,61.53C112.219,61.563 112.219,61.597 112.21,61.63C112.201,61.663 112.21,61.7 112.21,61.76C112.214,61.837 112.214,61.913 112.21,61.99C112.219,62.053 112.219,62.117 112.21,62.18C112.201,62.243 112.21,62.26 112.21,62.27C112.21,62.28 112.15,62.27 112.14,62.27L112.14,62.17C112.126,62.102 112.098,62.038 112.06,61.98C112.034,61.915 112.004,61.852 111.97,61.79C111.98,61.754 111.98,61.716 111.97,61.68C111.96,61.644 111.97,61.68 111.97,61.68L112.06,61.59C112.06,61.59 112.12,61.59 112.06,61.5C112.071,61.441 112.071,61.379 112.06,61.32C112.049,61.285 112.028,61.254 112,61.23C111.984,61.188 111.984,61.142 112,61.1C111.993,61.054 111.993,61.006 112,60.96C112.013,60.891 112.013,60.819 112,60.75C111.993,60.702 111.972,60.657 111.94,60.62C111.919,60.579 111.892,60.542 111.86,60.51C111.828,60.478 111.78,60.45 111.79,60.42C111.8,60.39 111.79,60.32 111.79,60.28C111.793,60.23 111.793,60.18 111.79,60.13C111.784,60.07 111.784,60.01 111.79,59.95C111.796,59.897 111.796,59.843 111.79,59.79L111.79,59.68C111.795,59.65 111.795,59.62 111.79,59.59C111.785,59.56 111.79,59.5 111.79,59.5L111.79,59.43C111.79,59.36 111.79,59.32 111.85,59.27C111.838,59.241 111.838,59.209 111.85,59.18C111.884,59.167 111.915,59.147 111.94,59.12L111.94,59.06C111.94,59.06 111.94,59 112,58.98C112.06,58.96 112,58.92 112,58.9C112.034,58.865 112.061,58.824 112.08,58.78L112.08,58.67C112.075,58.644 112.075,58.616 112.08,58.59C112.085,58.564 112.08,58.59 112.08,58.59L112.08,58.71C112.076,58.78 112.076,58.85 112.08,58.92C112.085,58.973 112.085,59.027 112.08,59.08L112.08,59.77C112.075,59.853 112.075,59.937 112.08,60.02L112.08,60.32C112.072,60.41 112.072,60.5 112.08,60.59C112.08,60.66 112.14,60.76 112.16,60.82C112.271,60.858 112.333,60.978 112.3,61.09Z" style="fill:rgb(238,115,38);fill-rule:nonzero;"/>
            </g>
            <g transform="matrix(1,0,0,1,-25.87,-24.74)">
                <path d="M116.52,60.66C116.487,60.74 116.487,60.83 116.52,60.91C116.52,60.99 116.62,61.04 116.6,61.1C116.605,61.143 116.605,61.187 116.6,61.23C116.58,61.253 116.58,61.287 116.6,61.31C116.62,61.333 116.6,61.31 116.6,61.39C116.594,61.423 116.594,61.457 116.6,61.49C116.593,61.523 116.593,61.557 116.6,61.59C116.566,61.661 116.536,61.735 116.51,61.81C116.507,61.857 116.507,61.903 116.51,61.95C116.513,61.997 116.51,61.95 116.51,62.01C116.477,62.017 116.443,62.017 116.41,62.01C116.377,62.003 116.34,62.01 116.34,62.01L116.34,61.75C116.35,61.667 116.35,61.583 116.34,61.5L116.34,61.4L116.34,61.31C116.351,61.19 116.351,61.07 116.34,60.95L116.34,60.65L116.34,60.31C116.35,60.18 116.35,60.05 116.34,59.92C116.349,59.783 116.349,59.647 116.34,59.51C116.34,59.45 116.28,59.03 116.27,59.01C116.26,58.99 116.27,58.73 116.27,58.7C116.277,58.667 116.277,58.633 116.27,58.6C116.263,58.567 116.27,58.6 116.27,58.54C116.27,58.48 116.27,58.54 116.27,58.54C116.27,58.54 116.33,58.48 116.34,58.47C116.35,58.46 116.34,58.47 116.34,58.47C116.337,58.493 116.337,58.517 116.34,58.54C116.362,58.604 116.392,58.664 116.43,58.72C116.453,58.771 116.483,58.818 116.52,58.86C116.557,58.902 116.61,58.95 116.6,58.99C116.59,59.03 116.6,59.07 116.6,59.1C116.597,59.143 116.597,59.187 116.6,59.23C116.602,59.27 116.602,59.31 116.6,59.35C116.598,59.39 116.6,59.47 116.6,59.52C116.588,59.613 116.588,59.707 116.6,59.8C116.592,59.893 116.592,59.987 116.6,60.08C116.605,60.153 116.626,60.225 116.66,60.29C116.66,60.35 116.66,60.42 116.74,60.45C116.82,60.48 116.85,60.53 116.8,60.56C116.772,60.547 116.741,60.54 116.71,60.54C116.629,60.54 116.555,60.587 116.52,60.66Z" style="fill:rgb(238,115,38);fill-rule:nonzero;"/>
            </g>
            <g transform="matrix(1,0,0,1,-25.87,-24.74)">
                <path d="M116.52,60.66C116.487,60.74 116.487,60.83 116.52,60.91C116.52,60.99 116.62,61.04 116.6,61.1C116.605,61.143 116.605,61.187 116.6,61.23C116.58,61.253 116.58,61.287 116.6,61.31C116.62,61.333 116.6,61.31 116.6,61.39C116.594,61.423 116.594,61.457 116.6,61.49C116.593,61.523 116.593,61.557 116.6,61.59C116.566,61.661 116.536,61.735 116.51,61.81C116.507,61.857 116.507,61.903 116.51,61.95C116.513,61.997 116.51,61.95 116.51,62.01C116.477,62.017 116.443,62.017 116.41,62.01C116.377,62.003 116.34,62.01 116.34,62.01L116.34,61.75C116.35,61.667 116.35,61.583 116.34,61.5L116.34,61.4L116.34,61.31C116.351,61.19 116.351,61.07 116.34,60.95L116.34,60.65L116.34,60.31C116.35,60.18 116.35,60.05 116.34,59.92C116.349,59.783 116.349,59.647 116.34,59.51C116.34,59.45 116.28,59.03 116.27,59.01C116.26,58.99 116.27,58.73 116.27,58.7C116.277,58.667 116.277,58.633 116.27,58.6C116.263,58.567 116.27,58.6 116.27,58.54C116.27,58.48 116.27,58.54 116.27,58.54C116.27,58.54 116.33,58.48 116.34,58.47C116.35,58.46 116.34,58.47 116.34,58.47C116.337,58.493 116.337,58.517 116.34,58.54C116.362,58.604 116.392,58.664 116.43,58.72C116.453,58.771 116.483,58.818 116.52,58.86C116.557,58.902 116.61,58.95 116.6,58.99C116.59,59.03 116.6,59.07 116.6,59.1C116.597,59.143 116.597,59.187 116.6,59.23C116.602,59.27 116.602,59.31 116.6,59.35C116.598,59.39 116.6,59.47 116.6,59.52C116.588,59.613 116.588,59.707 116.6,59.8C116.592,59.893 116.592,59.987 116.6,60.08C116.605,60.153 116.626,60.225 116.66,60.29C116.66,60.35 116.66,60.42 116.74,60.45C116.82,60.48 116.85,60.53 116.8,60.56C116.772,60.547 116.741,60.54 116.71,60.54C116.629,60.54 116.555,60.587 116.52,60.66Z" style="fill:rgb(238,115,38);fill-rule:nonzero;"/>
            </g>
            <g transform="matrix(1,0,0,1,-25.87,-24.74)">
                <path d="M112.3,61.09L112.21,61.25L112.21,61.53C112.219,61.563 112.219,61.597 112.21,61.63C112.201,61.663 112.21,61.7 112.21,61.76C112.214,61.837 112.214,61.913 112.21,61.99C112.219,62.053 112.219,62.117 112.21,62.18C112.201,62.243 112.21,62.26 112.21,62.27C112.21,62.28 112.15,62.27 112.14,62.27L112.14,62.17C112.126,62.102 112.098,62.038 112.06,61.98C112.034,61.915 112.004,61.852 111.97,61.79C111.98,61.754 111.98,61.716 111.97,61.68C111.96,61.644 111.97,61.68 111.97,61.68L112.06,61.59C112.06,61.59 112.12,61.59 112.06,61.5C112.071,61.441 112.071,61.379 112.06,61.32C112.049,61.285 112.028,61.254 112,61.23C111.984,61.188 111.984,61.142 112,61.1C111.993,61.054 111.993,61.006 112,60.96C112.013,60.891 112.013,60.819 112,60.75C111.993,60.702 111.972,60.657 111.94,60.62C111.919,60.579 111.892,60.542 111.86,60.51C111.828,60.478 111.78,60.45 111.79,60.42C111.8,60.39 111.79,60.32 111.79,60.28C111.793,60.23 111.793,60.18 111.79,60.13C111.784,60.07 111.784,60.01 111.79,59.95C111.796,59.897 111.796,59.843 111.79,59.79L111.79,59.68C111.795,59.65 111.795,59.62 111.79,59.59C111.785,59.56 111.79,59.5 111.79,59.5L111.79,59.43C111.79,59.36 111.79,59.32 111.85,59.27C111.838,59.241 111.838,59.209 111.85,59.18C111.884,59.167 111.915,59.147 111.94,59.12L111.94,59.06C111.94,59.06 111.94,59 112,58.98C112.06,58.96 112,58.92 112,58.9C112.034,58.865 112.061,58.824 112.08,58.78L112.08,58.67C112.075,58.644 112.075,58.616 112.08,58.59C112.085,58.564 112.08,58.59 112.08,58.59L112.08,58.71C112.076,58.78 112.076,58.85 112.08,58.92C112.085,58.973 112.085,59.027 112.08,59.08L112.08,59.77C112.075,59.853 112.075,59.937 112.08,60.02L112.08,60.32C112.072,60.41 112.072,60.5 112.08,60.59C112.08,60.66 112.14,60.76 112.16,60.82C112.271,60.858 112.333,60.978 112.3,61.09Z" style="fill:rgb(238,115,38);fill-rule:nonzero;"/>
            </g>
        </g>
        <g id="world" transform="matrix(1.15917,0,0,1.15917,0.0031829,-0.189415)">
            <circle cx="51.76" cy="16.14" r="13.46" style="fill:white;"/>
            <g transform="matrix(1,0,0,1,-25.87,-24.74)">
                <path d="M77.89,29.2C71.411,29.2 66.08,34.531 66.08,41.01C66.08,47.489 71.411,52.82 77.89,52.82C84.369,52.82 89.7,47.489 89.7,41.01C89.7,41.007 89.7,41.003 89.7,41C89.695,34.525 84.365,29.2 77.89,29.2ZM78.18,50.35L77.89,50.35L77.67,50.35L77.38,50.35C72.396,50.136 68.411,45.978 68.411,40.989C68.411,39.362 68.835,37.763 69.64,36.35L69.64,36.29C71.246,33.529 74.158,31.773 77.35,31.64L78.15,31.64C81.335,31.77 84.242,33.518 85.85,36.27L85.91,36.37C86.729,37.776 87.163,39.373 87.17,41C87.158,45.99 83.166,50.143 78.18,50.35Z" style="fill:rgb(238,115,38);fill-rule:nonzero;"/>
            </g>
            <g transform="matrix(1,0,0,1,-25.87,-24.74)">
                <path d="M85,45.65C83.98,47.234 82.469,48.442 80.7,49.09C81.624,48.114 82.309,46.936 82.7,45.65L85,45.65Z" style="fill:rgb(238,115,38);fill-rule:nonzero;"/>
            </g>
            <g transform="matrix(1,0,0,1,-25.87,-24.74)">
                <path d="M77.4,32.38L77.4,36.1L73.66,36.1C74.49,34 75.85,32.53 77.4,32.38Z" style="fill:rgb(238,115,38);fill-rule:nonzero;"/>
            </g>
            <g transform="matrix(1,0,0,1,-25.87,-24.74)">
                <path d="M77.4,36.86L77.4,40.6L72.81,40.6C72.833,39.333 73.028,38.075 73.39,36.86L77.4,36.86Z" style="fill:rgb(238,115,38);fill-rule:nonzero;"/>
            </g>
            <g transform="matrix(1,0,0,1,-25.87,-24.74)">
                <path d="M86.39,40.6L83.51,40.6C83.487,39.334 83.295,38.076 82.94,36.86L85.35,36.86C85.981,38.009 86.338,39.29 86.39,40.6Z" style="fill:rgb(238,115,38);fill-rule:nonzero;"/>
            </g>
            <g transform="matrix(1,0,0,1,-25.87,-24.74)">
                <path d="M84.88,36.1L82.7,36.1C82.28,34.892 81.597,33.792 80.7,32.88C82.394,33.492 83.856,34.618 84.88,36.1Z" style="fill:rgb(238,115,38);fill-rule:nonzero;"/>
            </g>
            <g transform="matrix(1,0,0,1,-25.87,-24.74)">
                <path d="M72.62,36.86C72.265,38.076 72.073,39.334 72.05,40.6L69.18,40.6C69.22,39.293 69.562,38.013 70.18,36.86L72.62,36.86Z" style="fill:rgb(238,115,38);fill-rule:nonzero;"/>
            </g>
            <g transform="matrix(1,0,0,1,-25.87,-24.74)">
                <path d="M72.56,44.89L70.11,44.89C69.546,43.799 69.229,42.597 69.18,41.37L72.05,41.37C72.07,42.56 72.241,43.743 72.56,44.89Z" style="fill:rgb(238,115,38);fill-rule:nonzero;"/>
            </g>
            <g transform="matrix(1,0,0,1,-25.87,-24.74)">
                <path d="M74.84,49.09C73.07,48.448 71.561,47.238 70.55,45.65L72.79,45.65C73.198,46.94 73.9,48.117 74.84,49.09Z" style="fill:rgb(238,115,38);fill-rule:nonzero;"/>
            </g>
            <g transform="matrix(1,0,0,1,-25.87,-24.74)">
                <path d="M77.4,45.65L77.4,49.59C75.8,49.44 74.4,47.9 73.58,45.65L77.4,45.65Z" style="fill:rgb(238,115,38);fill-rule:nonzero;"/>
            </g>
            <g transform="matrix(1,0,0,1,-25.87,-24.74)">
                <path d="M77.4,41.37L77.4,44.89L73.33,44.89C73.006,43.744 72.832,42.561 72.81,41.37L77.4,41.37Z" style="fill:rgb(238,115,38);fill-rule:nonzero;"/>
            </g>
            <g transform="matrix(1,0,0,1,-25.87,-24.74)">
                <path d="M82.75,41.37C82.73,42.562 82.552,43.745 82.22,44.89L78.16,44.89L78.16,41.37L82.75,41.37Z" style="fill:rgb(238,115,38);fill-rule:nonzero;"/>
            </g>
            <g transform="matrix(1,0,0,1,-25.87,-24.74)">
                <path d="M82,45.65C81.18,47.9 79.78,49.44 78.18,49.59L78.18,45.65L82,45.65Z" style="fill:rgb(238,115,38);fill-rule:nonzero;"/>
            </g>
            <g transform="matrix(1,0,0,1,-25.87,-24.74)">
                <path d="M86.39,41.37C86.341,42.597 86.024,43.799 85.46,44.89L83,44.89C83.319,43.743 83.49,42.56 83.51,41.37L86.39,41.37Z" style="fill:rgb(238,115,38);fill-rule:nonzero;"/>
            </g>
            <g transform="matrix(1,0,0,1,-25.87,-24.74)">
                <path d="M82.75,40.6L78.16,40.6L78.16,36.86L82.16,36.86C82.53,38.073 82.728,39.332 82.75,40.6Z" style="fill:rgb(238,115,38);fill-rule:nonzero;"/>
            </g>
            <g transform="matrix(1,0,0,1,-25.87,-24.74)">
                <path d="M81.9,36.1L78.16,36.1L78.16,32.38C79.71,32.53 81.07,34 81.9,36.1Z" style="fill:rgb(238,115,38);fill-rule:nonzero;"/>
            </g>
            <g transform="matrix(1,0,0,1,-25.87,-24.74)">
                <path d="M74.82,32.89C73.926,33.801 73.243,34.896 72.82,36.1L70.68,36.1C71.696,34.629 73.142,33.507 74.82,32.89Z" style="fill:rgb(238,115,38);fill-rule:nonzero;"/>
            </g>
        </g>
        <g id="drug" transform="matrix(1.15917,0,0,1.15917,0.0031829,-0.189415)">
            <circle cx="51.79" cy="60.5" r="13.46" style="fill:white;"/>
            <g transform="matrix(1,0,0,1,-25.87,-24.74)">
                <path d="M77.89,73.55C71.411,73.55 66.08,78.881 66.08,85.36C66.08,91.839 71.411,97.17 77.89,97.17C84.369,97.17 89.7,91.839 89.7,85.36C89.695,78.883 84.367,73.555 77.89,73.55ZM83.23,90.38C82.671,90.94 81.912,91.257 81.12,91.26C80.324,91.266 79.558,90.948 79,90.38L73,84.38C71.851,83.219 71.851,81.321 73,80.16C74.176,79.035 76.054,79.035 77.23,80.16L83.23,86.16C84.373,87.32 84.373,89.21 83.23,90.37L83.23,90.38Z" style="fill:rgb(238,115,38);fill-rule:nonzero;"/>
            </g>
            <g transform="matrix(1,0,0,1,-25.87,-24.74)">
                <path d="M76.77,80.69C76.341,80.26 75.757,80.019 75.15,80.019C74.543,80.019 73.959,80.26 73.53,80.69C73.1,81.119 72.859,81.703 72.859,82.31C72.859,82.917 73.1,83.501 73.53,83.93L76.47,86.87L79.71,83.63L76.77,80.69ZM76.47,81.4C75.881,80.82 74.975,80.694 74.25,81.09C74.106,81.179 73.972,81.283 73.85,81.4L73.5,81.05C73.652,80.898 73.824,80.767 74.01,80.66C74.926,80.151 76.077,80.311 76.82,81.05L77.94,82.17L77.59,82.52C76.9,81.86 76.6,81.56 76.47,81.4Z" style="fill:rgb(238,115,38);fill-rule:nonzero;"/>
            </g>
        </g>
    </g>
</svg>
