<?xml version="1.0" encoding="UTF-8" standalone="no"?>
<!DOCTYPE svg PUBLIC "-//W3C//DTD SVG 1.1//EN" "http://www.w3.org/Graphics/SVG/1.1/DTD/svg11.dtd">
<svg width="100%" height="100%" viewBox="0 0 799 648" version="1.1" xmlns="http://www.w3.org/2000/svg" xmlns:xlink="http://www.w3.org/1999/xlink" xml:space="preserve" xmlns:serif="http://www.serif.com/" style="fill-rule:evenodd;clip-rule:evenodd;stroke-linecap:round;stroke-linejoin:round;stroke-miterlimit:1.5;">
    <path d="M126.832,0L74.02,103.009L84.681,103.009L84.681,187.009L30.953,187.009L0,247.381L383.53,444.017L510.363,196.636L126.832,0Z" style="fill:rgb(242,242,242);fill-rule:nonzero;"/>
    <rect x="115.681" y="67.009" width="588" height="295" style="fill:rgb(63,61,86);"/>
    <rect x="198.181" y="173.009" width="434" height="1" style="fill:rgb(108,99,255);fill-opacity:0.3;"/>
    <rect x="198.681" y="198.009" width="434" height="1" style="fill:rgb(108,99,255);fill-opacity:0.3;"/>
    <rect x="198.681" y="248.009" width="434" height="1" style="fill:rgb(108,99,255);fill-opacity:0.3;"/>
    <rect x="198.681" y="270.009" width="434" height="1" style="fill:rgb(108,99,255);fill-opacity:0.3;"/>
    <rect x="198.681" y="223.009" width="434" height="1" style="fill:rgb(108,99,255);fill-opacity:0.3;"/>
    <ellipse cx="566.681" cy="630.009" rx="186" ry="17" style="fill:rgb(63,61,86);"/>
    <g id="linepath" transform="matrix(1,0,0,1,-0.59223,0.927505)">
        <path d="M210.722,270.733L273.943,207.712L331.983,249.009L377.817,198.633L399.341,215.139L452.04,182.79L514.958,225.432L609.825,173.429" style="fill:none;stroke:rgb(0,225,160);stroke-width:7px;"/>
    </g>
    <g transform="matrix(1,0,0,1,-200.659,-126.496)">
        <path d="M597.416,722.342C602.116,739.716 618.214,750.476 618.214,750.476C618.214,750.476 626.693,733.068 621.993,715.694C617.293,698.32 601.194,687.56 601.194,687.56C601.194,687.56 592.716,704.968 597.416,722.342Z" style="fill:rgb(63,61,86);fill-rule:nonzero;"/>
    </g>
    <g transform="matrix(1,0,0,1,-200.659,-126.496)">
        <path d="M604.322,718.608C617.219,731.163 618.794,750.462 618.794,750.462C618.794,750.462 599.46,749.406 586.563,736.852C573.666,724.297 572.091,704.998 572.091,704.998C572.091,704.998 591.426,706.054 604.322,718.608Z" style="fill:rgb(108,99,255);fill-rule:nonzero;"/>
    </g>
    <circle cx="765.181" cy="53.509" r="33.5" style="fill:rgb(108,99,255);fill-opacity:0.4;"/>
    <circle cx="703.181" cy="69.509" r="23.5" style="fill:rgb(108,99,255);fill-opacity:0.4;"/>
    <circle cx="674.181" cy="500.509" r="12.5" style="fill:rgb(108,99,255);fill-opacity:0.4;"/>
    <circle cx="461.181" cy="565.509" r="9.5" style="fill:rgb(108,99,255);fill-opacity:0.4;"/>
    <circle cx="429.181" cy="439.509" r="12.5" style="fill:rgb(108,99,255);fill-opacity:0.4;"/>
    <circle cx="608.181" cy="173.509" r="13" style="fill:rgb(108,99,255);"/>
    <g transform="matrix(1,0,0,1,-200.659,-126.496)">
        <path d="M724.373,535.47L713.353,536.695C713.353,536.695 708.455,558.736 713.353,588.124C718.251,617.512 724.373,646.9 724.373,646.9C724.373,646.9 729.271,742.411 731.72,743.635C734.169,744.86 756.21,752.207 757.435,744.86C758.659,737.513 758.659,569.756 758.659,569.756L775.802,650.573C775.802,650.573 778.251,752.207 783.149,752.207C788.047,752.207 803.966,750.982 803.966,742.411C803.966,733.839 807.639,621.185 807.639,621.185C807.639,621.185 806.415,537.919 801.517,535.47C796.619,533.021 724.373,535.47 724.373,535.47Z" style="fill:rgb(47,46,65);fill-rule:nonzero;"/>
    </g>
    <g transform="matrix(1,0,0,1,-200.659,-126.496)">
        <path d="M734.169,739.962C734.169,739.962 723.149,738.737 720.7,739.962C718.251,741.186 714.577,749.758 720.7,754.656C726.822,759.554 742.741,766.901 747.639,766.901C751.035,766.75 754.367,765.917 757.435,764.452L754.986,743.635L734.169,739.962Z" style="fill:rgb(47,46,65);fill-rule:nonzero;"/>
    </g>
    <g transform="matrix(1,0,0,1,-200.659,-126.496)">
        <path d="M783.149,746.084L784.374,763.227C784.374,763.227 800.292,765.676 801.517,763.227C802.741,760.778 814.986,754.656 816.211,753.431C817.435,752.207 818.66,738.737 811.313,737.513C803.966,736.288 801.517,739.962 801.517,739.962L783.149,746.084Z" style="fill:rgb(47,46,65);fill-rule:nonzero;"/>
    </g>
    <g transform="matrix(1,0,0,1,-200.659,-126.496)">
        <path d="M680.291,432.612C680.291,432.612 650.903,460.776 654.577,475.47C658.25,490.164 687.638,533.021 687.638,533.021C687.638,533.021 715.802,547.715 719.475,533.021C723.149,518.327 699.883,522 699.883,522L681.516,477.918L702.332,448.53L680.291,432.612Z" style="fill:rgb(255,184,184);fill-rule:nonzero;"/>
    </g>
    <g id="predictarm" transform="matrix(1,0,0,1,-200.659,-126.496)">
        <path d="M811.605,389.765C811.605,389.765 838.376,372.549 837.757,360.722C837.137,348.894 820.998,311.602 820.998,311.602C820.998,311.602 808.373,285.353 803.353,296.08C798.334,306.808 809.95,318.227 809.95,318.227L817.448,354.809L797.072,374.248L811.605,389.765Z" style="fill:rgb(255,184,184);fill-rule:nonzero;"/>
    </g>
    <circle cx="544.53" cy="216.728" r="22.041" style="fill:rgb(255,184,184);"/>
    <g transform="matrix(1,0,0,1,-200.659,-126.496)">
        <path d="M734.169,356.693L737.843,379.958L764.782,375.06C764.782,375.06 763.557,351.795 763.557,349.346C763.557,346.897 734.169,356.693 734.169,356.693Z" style="fill:rgb(255,184,184);fill-rule:nonzero;"/>
    </g>
    <g transform="matrix(1,0,0,1,-200.659,-126.496)">
        <path d="M732.945,379.958C732.945,379.958 763.557,372.611 767.231,375.06C770.904,377.509 789.272,379.958 789.272,379.958L810.088,411.795L803.966,452.204C803.966,452.204 802.741,517.103 805.19,528.123C807.639,539.144 821.109,540.368 792.945,542.817C764.782,545.266 759.884,541.593 740.292,546.491C720.7,551.389 704.781,544.042 709.679,539.144C714.577,534.246 723.149,455.877 713.353,448.53C703.557,441.183 699.883,403.224 699.883,403.224C699.883,403.224 732.945,386.081 732.945,379.958Z" style="fill:rgb(208,205,225);fill-rule:nonzero;"/>
    </g>
    <g transform="matrix(1,0,0,1,-200.659,-126.496)">
        <path d="M785.598,383.632L789.272,379.958L796.619,372.611C796.619,372.611 820.497,383.02 819.272,386.693C818.047,390.367 810.088,411.795 810.088,411.795L799.068,415.469L785.598,383.632Z" style="fill:rgb(208,205,225);fill-rule:nonzero;"/>
    </g>
    <g transform="matrix(1,0,0,1,-200.659,-126.496)">
        <path d="M714.577,405.673L699.883,403.224C699.883,403.224 688.863,415.469 685.189,420.367C681.516,425.265 674.169,437.51 674.169,437.51L699.883,455.877L719.475,435.061L714.577,405.673Z" style="fill:rgb(208,205,225);fill-rule:nonzero;"/>
    </g>
    <g transform="matrix(1,0,0,1,-200.659,-126.496)">
        <path d="M752.882,316.52L752.656,314.755C751.158,314.746 749.668,314.98 748.245,315.448C748.099,314.383 748.192,313.299 748.517,312.275C747.071,312.647 745.692,313.246 744.434,314.05L743.544,310.828L731.302,316.861C726.908,319.026 722.276,321.406 719.764,325.612C716.963,330.3 717.451,336.326 719.365,341.441C721.279,346.556 724.46,351.083 727.01,355.912C727.978,357.989 729.142,359.969 730.484,361.825C735.105,367.585 744.099,368.749 750.614,365.273C753.092,364.079 755.069,362.044 756.192,359.533C756.666,357.974 757.039,356.387 757.306,354.779C758.112,351.488 759.047,344.693 761.72,342.611C762.897,341.695 765.229,344.732 766.204,343.604C768.71,340.704 768.184,336.233 766.628,332.731C765.134,329.213 763.389,325.808 761.405,322.543C760.564,321.23 752.855,316.309 752.882,316.52Z" style="fill:rgb(47,46,65);fill-rule:nonzero;"/>
    </g>
    <g id="predictbox" transform="matrix(1,0,0,1,5.66769,-12)">
        <rect x="12.681" y="115.009" width="64" height="64" style="fill:rgb(63,61,86);"/>
    </g>
</svg>
