<svg xmlns="http://www.w3.org/2000/svg" xmlns:xlink="http://www.w3.org/1999/xlink" version="1.1" x="0px" y="0px" viewBox="0 0 100 100" style="enable-background:new 0 0 100 100;" xml:space="preserve"><g><path d="M22.9,30.5c-3.1,6.8-4.8,14.6-5,22.7h2.8c0.3-6.7,2.2-13.1,5.5-18.1l-2.1-2.9L22.9,30.5z"></path><path d="M63.6,53.3h18.5c-0.3-13.4-4.9-25.9-12.4-34.2L68,21.5l-9.8,13.7C61.5,40.2,63.4,46.5,63.6,53.3z"></path><path d="M40.7,11.5c-6.4,2.8-12.1,8.4-16.3,16l3.7,5.2c3.5-4.2,7.9-6.6,12.6-7V11.5z"></path><path d="M50,9.5c-2.1,0-4.2,0.3-6.3,0.9v15.2c4.7,0.4,9,2.9,12.6,7l11.3-15.7C62.3,12.1,56.3,9.5,50,9.5z"></path><path d="M58.2,74.4l11.6,16.1c7.5-8.3,12.1-20.8,12.4-34.2H63.6C63.4,63,61.5,69.4,58.2,74.4z"></path><path d="M53.9,41.5c-2.2,0.7-13.4,4-15.7,5.7c-2.7,2-3.8,6.1-2.6,9.2c0.6,1.7,1.9,2.9,3.4,3.3c0.4,0.1,0.9,0.2,1.3,0.2   c1.1,0,2.2-0.4,3.2-1.1c2.2-1.6,10.3-12.7,11.9-14.9c0.4-0.5,0.4-1.2,0-1.8C55.2,41.5,54.5,41.3,53.9,41.5z"></path></g></svg>