<?xml version="1.0" encoding="UTF-8" standalone="no"?>
<!DOCTYPE svg PUBLIC "-//W3C//DTD SVG 1.1//EN" "http://www.w3.org/Graphics/SVG/1.1/DTD/svg11.dtd">
<svg width="100%" height="100%" viewBox="0 0 1510 1510" version="1.1" xmlns="http://www.w3.org/2000/svg" xmlns:xlink="http://www.w3.org/1999/xlink" xml:space="preserve" xmlns:serif="http://www.serif.com/" style="fill-rule:evenodd;clip-rule:evenodd;stroke-linecap:round;stroke-linejoin:round;stroke-miterlimit:1.5;">
    <g transform="matrix(1,0,0,1,-575.827,-742.3)">
        <g>
            <g transform="matrix(0.992346,0,0,0.992346,-126.93,-27.4632)">
                <circle cx="1468.71" cy="1536.24" r="650.05" style="fill:none;stroke:rgb(255,215,251);stroke-width:6.3px;"/>
            </g>
            <g transform="matrix(1.15621,0,0,1.15621,-367.592,-279.19)">
                <circle cx="1468.71" cy="1536.24" r="650.05" style="fill:none;stroke:rgb(255,215,251);stroke-width:5.41px;"/>
            </g>
            <g transform="matrix(0.813574,0,0,0.813574,135.635,247.173)">
                <circle cx="1468.71" cy="1536.24" r="650.05" style="fill:none;stroke:rgb(255,215,251);stroke-width:7.68px;"/>
            </g>
            <g transform="matrix(0.645728,0,0,0.645728,382.154,505.025)">
                <circle cx="1468.71" cy="1536.24" r="650.05" style="fill:none;stroke:rgb(255,215,251);stroke-width:9.68px;"/>
            </g>
            <g transform="matrix(0.48104,0,0,0.48104,624.032,758.024)">
                <circle cx="1468.71" cy="1536.24" r="650.05" style="fill:none;stroke:rgb(255,215,251);stroke-width:12.99px;"/>
            </g>
            <g transform="matrix(0.331628,0,0,0.331628,843.476,987.557)">
                <circle cx="1468.71" cy="1536.24" r="650.05" style="fill:none;stroke:rgb(255,215,251);stroke-width:18.85px;"/>
            </g>
        </g>
    </g>
</svg>
